<!DOCTYPE svg PUBLIC "-//W3C//DTD SVG 1.1//EN" "http://www.w3.org/Graphics/SVG/1.1/DTD/svg11.dtd">
<!-- Uploaded to: SVG Repo, www.svgrepo.com, Transformed by: SVG Repo Mixer Tools -->
<svg height="800px" width="800px" version="1.1" id="_x32_" xmlns="http://www.w3.org/2000/svg" xmlns:xlink="http://www.w3.org/1999/xlink" viewBox="0 0 512 512" xml:space="preserve" fill="#ffffff" stroke="#ffffff">
<g id="SVGRepo_bgCarrier" stroke-width="0"/>
<g id="SVGRepo_tracerCarrier" stroke-linecap="round" stroke-linejoin="round"/>
<g id="SVGRepo_iconCarrier"> <style type="text/css"> .st0{fill:#ffffff;} </style> <g> <path class="st0" d="M152.047,280.864c-42.27,0-76.54,34.27-76.54,76.54c0,42.27,34.27,76.54,76.54,76.54 c42.271,0,76.532-34.27,76.532-76.54C228.579,315.133,194.318,280.864,152.047,280.864z M152.047,381.387 c-13.253,0-23.992-10.74-23.992-23.983c0-13.244,10.74-23.993,23.992-23.993c13.253,0,23.993,10.749,23.993,23.993 C176.04,370.648,165.3,381.387,152.047,381.387z"/> <path class="st0" d="M452.468,195.188H124.054l131.882-82.527l-2.34-3.91L391.41,25.608l1.679,2.794l17.806-10.667 c4.662-2.794,6.44-8.4,3.973-12.509l-0.762-1.279c-2.467-4.119-8.246-5.18-12.908-2.395l-17.806,10.676l1.507,2.512l-139.829,79.77 l-2.422-4.037L59.188,195.226c-21.298,0.181-38.515,17.47-38.515,38.822V473.14c0,21.462,17.398,38.86,38.86,38.86h392.935 c21.461,0,38.86-17.398,38.86-38.86V234.048C491.327,212.578,473.929,195.188,452.468,195.188z M152.047,449.936 c-51.106,0-92.532-41.436-92.532-92.532c0-51.105,41.426-92.532,92.532-92.532s92.532,41.427,92.532,92.532 C244.58,408.5,203.153,449.936,152.047,449.936z M447.922,449.936H301.691V430.47h146.232V449.936z M447.922,404.446H301.691 v-19.458h146.232V404.446z M447.922,358.964H301.691v-19.466h146.232V358.964z M447.922,306.761H301.691v-41.89h146.232V306.761z"/> </g> </g>
</svg>