<svg version="1.2" xmlns="http://www.w3.org/2000/svg" viewBox="0 0 307 307" width="307" height="307">
	<title>gun-svg</title>
	<style>
		.s0 { fill: #fc7f7f;stroke: #fc7f7f;stroke-width: .4 } 
		.s1 { fill: #fc7f7f } 
	</style>
	<g id="SVGRepo_bgCarrier">
	</g>
	<g id="SVGRepo_tracerCarrier">
	</g>
	<g id="SVGRepo_iconCarrier">
		<g id="Layer">
			<path id="Layer" class="s0" d="m298.5 88.8c4.4 0 8-3.6 8-8.1v-25.8c0-4.4-3.6-8-8-8h-14v-0.1c0-4.4-3.6-8-8-8h-60.1c-4.4 0-8 3.6-8 8v13.3c0 3.3-2.7 6-6 6h-69.9c-3.3 0-6-2.7-6-6v-13.3c0-4.4-3.6-8-8-8h-100.4c-10 0-18.1 8.1-18.1 18.1v31.9z"/>
			<path id="Layer" class="s0" d="m0 100.8v4.4c0 10 8.1 18.1 18.1 18.1h3.5l-20 106.8c-1.7 9.3 0.7 18.9 6.8 26.2 6 7.3 15 11.5 24.5 11.5h48.6c15.3 0 28.4-10.9 31.2-26l10.9-57.7q4.4 0.3 8.9 0.3c20.3 0 39.5-4.3 54.1-12.1 16.6-8.9 25.8-21.4 25.8-35.2 0-4.8-1.1-9.4-3.3-13.8h67.4c4.4 0 8-3.6 8-8v-14.5zm132.6 63.6q-2.7 0-5.3-0.1l4.6-24.6c4.7 6.3 10.6 11.9 18.2 16.1 1.5 0.9 3.2 1.3 4.8 1.3 3.5 0 6.9-1.9 8.8-5.2 2.6-4.8 0.9-10.9-3.9-13.6-6.5-3.6-11.3-8.9-14.8-15h38.3c5.8 4.3 9.1 9.2 9.1 13.8 0 12.9-25.6 27.3-59.8 27.3z"/>
		</g>
		<path id="+" class="s1" aria-label="+"  d="m214.8 292.8l-1.5-42.8h-42.4q-4.2 0-6.4-0.6-2.2-0.7-3.5-2.3-1.1-1.7-1.5-4.7-0.1-3.1-0.1-7.7 0-5.1 0.1-8.3 0.4-3.4 1.5-5.3 1.3-1.9 3.5-2.5 2.2-0.8 6.4-0.8h41.3l-1.6-45.4q0-4.1 1.1-6.3 1.2-2.4 3.7-3.5 2.6-1.2 6.6-1.3 4.1-0.3 9.8-0.3 5.3 0 9 0.3 3.8 0.1 6.1 1.3 2.2 1.1 3.1 3.5 1.2 2.2 1.2 6.3l-1.6 45.4h41.6q4 0 6.2 0.8 2.4 0.6 3.6 2.5 1.2 1.9 1.4 5.3 0.3 3.3 0.3 8.5 0 4.6-0.3 7.6-0.2 2.9-1.4 4.6-1.2 1.6-3.6 2.3-2.2 0.6-6.2 0.6h-42.8l-1.4 42.8q0 4.1-0.8 6.5-0.8 2.3-2.5 3.4-1.8 1.1-4.7 1.4-2.8 0.2-7.3 0.2-5 0-8.2-0.2-3.1-0.3-5.1-1.4-1.9-1.1-2.8-3.4-0.8-2.4-0.8-6.5z"/>
	</g>
</svg>