<svg style="height: 512px; width: 512px;" xmlns="http://www.w3.org/2000/svg" viewBox="0 0 512 512"><g class="" style="" transform="translate(0,0)"><g transform="translate(25.6, 25.6) scale(0.9, 0.9) rotate(0, 256, 256) skewX(0) skewY(0)"><path d="M411 68.31L411 69.01C411 94.91 357.4 116 256 116C149.5 116 101 94.91 101 69.01L101 67.81C101 52.81 117.7 40.91 150.7 32.51C178.9 25.31 216.3 21.41 256 21.41C295.6 21.41 333 25.31 361.3 32.51C394.3 40.91 411 52.81 411 67.81Z" class="selected" fill="#e37576" fill-opacity="0" stroke="#e37576" stroke-opacity="1" stroke-width="70"/><path d="M234 67.81C234 63.61 220.8 60.31 204.6 60.31C188.3 60.31 175.1 63.61 175.1 67.81C175.1 71.91 188.3 75.31 204.6 75.31C220.8 75.31 234 71.91 234 67.81Z" class="" fill="#e37576" fill-opacity="0"/><path d="M401.6 165.7L401.6 105.5C392.9 112.1 379.7 117.7 362 122.2C333.5 129.5 295.9 133.4 256 133.4C216.1 133.4 178.5 129.4 150 122.2C132.3 117.7 119.1 112.2 110.4 105.5L110.4 165.7C104.1 171 101 176.9 101 183.4L101 184.5C101 210.4 149.5 231.4 256 231.4C357.4 231.4 411 210.4 411 184.5L411 183.4C411 176.9 407.9 171 401.6 165.7Z" class="" fill="#e37576" fill-opacity="0" stroke="#e37576" stroke-opacity="1" stroke-width="70"/><path d="M401.6 294.6L401.6 221.1C392.9 227.7 379.7 233.3 362 237.8C333.5 245 295.9 249 256 249C216.1 249 178.5 245 150 237.8C132.3 233.3 119.1 227.7 110.4 221.1L110.4 294.6C104.1 299.9 101 305.8 101 312.3L101 313.2C101 339.1 149.5 360.1 256 360.1C357.4 360.1 411 339.1 411 313.2L411 312.3C411 305.7 407.9 299.8 401.6 294.6Z" class="" fill="#e37576" fill-opacity="0" stroke="#e37576" stroke-opacity="1" stroke-width="70"/><path d="M410.5 440C409.4 435.1 406.5 430.6 401.6 426.5L401.6 350C392.9 356.6 379.7 362.2 362 366.7C333.5 373.9 295.9 377.9 256 377.9C216.1 377.9 178.5 373.9 150 366.7C132.3 362.2 119.1 356.6 110.4 350L110.4 426.5C105.5 430.6 102.6 435.1 101.5 440C101.2 441.2 101 442.5 101 443.7L101 444.2C101 449.9 103.3 455.1 108 459.8C125 477.8 172.8 490.6 256 490.6C316.2 490.6 359.6 483.2 384.9 471.7C402.2 464.2 411 455.1 411 444.2L411 443.7C411 442.5 410.8 441.2 410.5 440Z" class="" fill="#e37576" fill-opacity="0" stroke="#e37576" stroke-opacity="1" stroke-width="70"/></g></g></svg>