<svg style="height: 512px; width: 512px;" xmlns="http://www.w3.org/2000/svg" viewBox="0 0 512 512"><g class="" style="" transform="translate(0,0)"><g><path d="M37.727 25L115.727 103L396.273 103L474.273 25L37.727 25Z" class="" fill="#e37576" fill-opacity="1"/><path d="M25 37.727L25 474.273L103 396.273L103 115.727L25 37.727Z" class="" fill="#e37576" fill-opacity="1"/><path d="M487 37.727L409 115.727L409 396.273L487 474.273L487 37.727Z" class="" fill="#e37576" fill-opacity="1"/><path d="M79.957 40C84.375 40 87.957 43.582 87.957 48C87.957 52.418 84.375 56 79.957 56C75.539 56 71.957 52.418 71.957 48C71.957 43.582 75.539 40 79.957 40Z" class="" fill="#e37576" fill-opacity="1"/><path d="M432 40.793C436.418 40.793 440 44.375 440 48.793C440 53.211 436.418 56.793 432 56.793C427.582 56.793 424 53.211 424 48.793C424 44.375 427.582 40.793 432 40.793Z" class="" fill="#e37576" fill-opacity="1"/><path d="M112 72C116.418 72 120 75.582 120 80C120 84.418 116.418 88 112 88C107.582 88 104 84.418 104 80C104 75.582 107.582 72 112 72Z" class="" fill="#e37576" fill-opacity="1"/><path d="M399.45 72C403.868 72 407.45 75.582 407.45 80C407.45 84.418 403.868 88 399.45 88C395.032 88 391.45 84.418 391.45 80C391.45 75.582 395.032 72 399.45 72Z" class="" fill="#e37576" fill-opacity="1"/><path d="M462.87 72C467.288 72 470.87 75.582 470.87 80C470.87 84.418 467.288 88 462.87 88C458.452 88 454.87 84.418 454.87 80C454.87 75.582 458.452 72 462.87 72Z" class="" fill="#e37576" fill-opacity="1"/><path d="M48 73.047C52.418 73.047 56 76.629 56 81.047C56 85.465 52.418 89.047 48 89.047C43.582 89.047 40 85.465 40 81.047C40 76.629 43.582 73.047 48 73.047Z" class="" fill="#e37576" fill-opacity="1"/><path d="M79.395 104C83.813 104 87.395 107.582 87.395 112C87.395 116.418 83.813 120 79.395 120C74.977 120 71.395 116.418 71.395 112C71.395 107.582 74.977 104 79.395 104Z" class="" fill="#e37576" fill-opacity="1"/><path d="M432 104.2C436.418 104.2 440 107.782 440 112.2C440 116.618 436.418 120.2 432 120.2C427.582 120.2 424 116.618 424 112.2C424 107.782 427.582 104.2 432 104.2Z" class="" fill="#e37576" fill-opacity="1"/><path d="M121 121L121 314.273L174.7 260.573L174.065 121L121 121Z" class="" fill="#e37576" fill-opacity="1"/><path d="M192.064 121L192.619 242.654L246.999 188.274L246.999 121L192.063 121Z" class="" fill="#e37576" fill-opacity="1"/><path d="M265 121L265 170.273L314.273 121L265 121Z" class="" fill="#e37576" fill-opacity="1"/><path d="M339.727 121L121 339.727L121 391L172.273 391L391 172.273L391 121L339.727 121Z" class="" fill="#e37576" fill-opacity="1"/><path d="M391 197.727L337.977 250.75L337.977 391L391 391L391 197.727Z" class="" fill="#e37576" fill-opacity="1"/><path d="M319.977 268.75L265 323.727L265 391L319.977 391L319.977 268.75Z" class="" fill="#e37576" fill-opacity="1"/><path d="M247 341.727L197.727 391L247 391L247 341.727Z" class="" fill="#e37576" fill-opacity="1"/><path d="M77.97 392C82.388 392 85.97 395.582 85.97 400C85.97 404.418 82.388 408 77.97 408C73.552 408 69.97 404.418 69.97 400C69.97 395.582 73.552 392 77.97 392Z" class="" fill="#e37576" fill-opacity="1"/><path d="M432 392.658C436.418 392.658 440 396.24 440 400.658C440 405.076 436.418 408.658 432 408.658C427.582 408.658 424 405.076 424 400.658C424 396.24 427.582 392.658 432 392.658Z" class="" fill="#e37576" fill-opacity="1"/><path d="M115.727 409L37.727 487L474.273 487L396.273 409L115.727 409Z" class="selected" fill="#e37576" fill-opacity="1"/><path d="M48 423.752C52.418 423.752 56 427.334 56 431.752C56 436.17 52.418 439.752 48 439.752C43.582 439.752 40 436.17 40 431.752C40 427.334 43.582 423.752 48 423.752Z" class="" fill="#e37576" fill-opacity="1"/><path d="M112 424.552C116.418 424.552 120 428.134 120 432.552C120 436.97 116.418 440.552 112 440.552C107.582 440.552 104 436.97 104 432.552C104 428.134 107.582 424.552 112 424.552Z" class="" fill="#e37576" fill-opacity="1"/><path d="M400 425.264C404.418 425.264 408 428.846 408 433.264C408 437.682 404.418 441.264 400 441.264C395.582 441.264 392 437.682 392 433.264C392 428.846 395.582 425.264 400 425.264Z" class="" fill="#e37576" fill-opacity="1"/><path d="M464 430.004C468.418 430.004 472 433.586 472 438.004C472 442.422 468.418 446.004 464 446.004C459.582 446.004 456 442.422 456 438.004C456 433.586 459.582 430.004 464 430.004Z" class="" fill="#e37576" fill-opacity="1"/><path d="M432 456C436.418 456 440 459.582 440 464C440 468.418 436.418 472 432 472C427.582 472 424 468.418 424 464C424 459.582 427.582 456 432 456Z" class="" fill="#e37576" fill-opacity="1"/><path d="M80 458.56C84.418 458.56 88 462.142 88 466.56C88 470.978 84.418 474.56 80 474.56C75.582 474.56 72 470.978 72 466.56C72 462.142 75.582 458.56 80 458.56Z" class="" fill="#e37576" fill-opacity="1"/></g></g></svg>